<svg xmlns="http://www.w3.org/2000/svg" width="32" height="32" viewBox="0 0 24 24">
  <defs>
    <linearGradient id="base-hand" x1="0" y1="0" x2="1" y2="1">
      <stop offset="0" stop-color="#2a0a5e"/>
      <stop offset=".45" stop-color="#7a1fd1"/>
      <stop offset=".8" stop-color="#c13dff"/>
      <stop offset="1" stop-color="#4f7bff"/>
    </linearGradient>
    <radialGradient id="pink-hand" cx=".3" cy=".25" r=".6">
      <stop offset="0" stop-color="#ff80e8" stop-opacity=".9"/>
      <stop offset="1" stop-color="#ff80e8" stop-opacity="0"/>
    </radialGradient>
    <radialGradient id="blue-hand" cx=".78" cy=".82" r=".55">
      <stop offset="0" stop-color="#7fb0ff" stop-opacity=".85"/>
      <stop offset="1" stop-color="#7fb0ff" stop-opacity="0"/>
    </radialGradient>
    <clipPath id="shape-hand"><path d="M6 15 V4 a2 2 0 0 1 4 0 V9 a2 2 0 0 1 4 0 V10 a2 2 0 0 1 4 0 V11 a2 2 0 0 1 4 0 V14 a8 8 0 0 1 -8 8 h-2 c-2.8 0 -4.5 -.86 -5.99 -2.34 l-3.6 -3.6 a2 2 0 0 1 2.83 -2.82 L6 15 Z"/></clipPath>
  </defs>
  <path d="M6 15 V4 a2 2 0 0 1 4 0 V9 a2 2 0 0 1 4 0 V10 a2 2 0 0 1 4 0 V11 a2 2 0 0 1 4 0 V14 a8 8 0 0 1 -8 8 h-2 c-2.8 0 -4.5 -.86 -5.99 -2.34 l-3.6 -3.6 a2 2 0 0 1 2.83 -2.82 L6 15 Z" fill="#12041f" stroke="#12041f" stroke-width="2.6" stroke-linejoin="round"/>
  <g clip-path="url(#shape-hand)">
    <rect width="24" height="24" fill="url(#base-hand)"/>
    <rect width="24" height="24" fill="url(#pink-hand)"/>
    <rect width="24" height="24" fill="url(#blue-hand)"/>
    <g fill="#fff">
      <circle cx="7" cy="6" r=".55"/><circle cx="12" cy="11" r=".4"/><circle cx="9" cy="16" r=".5"/>
      <circle cx="15" cy="8" r=".35"/><circle cx="17" cy="16" r=".5"/><circle cx="6" cy="12" r=".3"/>
      <circle cx="13" cy="19" r=".4"/><circle cx="19" cy="12" r=".35"/><circle cx="10" cy="4" r=".3"/>
    </g>
  </g>
  <path d="M6 15 V4 a2 2 0 0 1 4 0 V9 a2 2 0 0 1 4 0 V10 a2 2 0 0 1 4 0 V11 a2 2 0 0 1 4 0 V14 a8 8 0 0 1 -8 8 h-2 c-2.8 0 -4.5 -.86 -5.99 -2.34 l-3.6 -3.6 a2 2 0 0 1 2.83 -2.82 L6 15 Z" fill="none" stroke="#f3e8ff" stroke-width="1" stroke-linejoin="round" stroke-opacity=".9"/>
</svg>
